<svg width="612" height="612" xmlns="http://www.w3.org/2000/svg" version="1.1">

 <g>
  <title>Layer 1</title>
  <path id="svg_20" d="m436.47,369.97q-0.08,57.19 0.05,115.53q0.03,12.65 -1.29,17.52c-4.52,16.73 -19.65,29.08 -37.21,29.07q-88.55,-0.06 -176.19,-0.01q-8.85,0 -13.82,-1.46c-13.17,-3.86 -23.72,-14.48 -27.03,-27.9q-1.22,-4.95 -1.2,-13.46q0.16,-56.81 0.02,-118.87q0,-0.56 -0.5,-0.81q-0.24,-0.12 -0.89,-0.39q-66.14,-27.43 -123.57,-51.57c-7.14,-3 -6.74,-11.17 0.01,-14.12q62.23,-27.25 124.43,-54.52q0.55,-0.24 0.55,-0.85q0.06,-61.76 -0.01,-123q-0.01,-8.54 2.1,-14.62c5.77,-16.58 20.7,-26.29 38.05,-26.28q91.12,0.09 177.6,0.01c17.84,-0.02 32.95,11.97 37.61,29q1.39,5.07 1.35,17.56q-0.2,59.85 -0.02,118.19q0,0.47 0.43,0.66q62.89,27.55 123.23,54.03c6.35,2.79 6.56,11.03 0.07,13.75q-61.95,25.95 -123.21,51.71q-0.56,0.23 -0.56,0.83zm82.59,-68.3q-40.57,-17.81 -82.15,-36.03a0.34,0.33 11.4 0 0 -0.47,0.31q0.01,35.58 0,68.89c0,9.68 -14.66,9.82 -14.66,-0.57q-0.01,-105.92 0.04,-209.7c0,-6.44 -1.52,-12.26 -5.71,-17.02q-7.84,-8.92 -19.86,-8.89q-84.96,0.18 -176.25,0.16q-17.08,0 -24.05,15.87c-0.96,2.18 -1.48,5.62 -1.48,7.99q0.04,106.46 0,212.01c-0.01,9.84 -14.63,9.74 -14.63,0.13q0,-35.52 0,-69.52q0,-0.58 -0.54,-0.35l-102.88,45.13a0.38,0.37 44.4 0 0 0.01,0.69l230.39,96.59q0.52,0.22 1.04,0l230.38,-96.58q0.5,-0.21 0.01,-0.45q-5.27,-2.55 -19.19,-8.66zm-214.42,120.69c-36.58,-15.45 -73.47,-30.78 -109.79,-46.03a0.3,0.3 0 0 0 -0.42,0.27q0.13,53.85 0.02,115.95c-0.02,11.11 6.43,20.19 16.89,23.71q4.04,1.36 10.07,1.35q85.54,-0.18 175.34,-0.08c10.82,0.01 20.67,-6.5 23.88,-16.77q1.17,-3.73 1.16,-13.65q-0.01,-55.6 0,-110.95a0.44,0.44 0 0 0 -0.61,-0.4q-53.9,22.59 -111.09,46.55q-2.8,1.17 -5.45,0.05z" fill="#010101"/>
  <rect id="svg_22" rx="7.05" height="14.52" width="54.06" y="113.73" x="281.13" fill="#010101"/>
  <circle id="svg_23" r="7.32" cy="120.97" cx="378.33" fill="#010101"/>
  <circle id="svg_24" r="7.33" cy="200.99" cx="307.71" fill="#010101"/>
  <circle id="svg_25" r="7.32" cy="213.96" cx="277.37" fill="#010101"/>
  <circle id="svg_26" r="7.32" cy="214.3" cx="338.07" fill="#010101"/>
  <circle id="svg_27" r="7.34" cy="227.28" cx="246.99" fill="#010101"/>
  <circle id="svg_28" r="7.33" cy="227.61" cx="368.44" fill="#010101"/>
  <circle id="svg_29" r="7.33" cy="240.57" cx="216.64" fill="#010101"/>
  <circle id="svg_30" r="7.32" cy="240.92" cx="398.77" fill="#010101"/>
  <path id="svg_31" d="m304.33,376.89c-20.84,-9.08 -41.93,-18.27 -62.84,-27.57q-3.56,-1.59 -3.57,-7.04q-0.04,-36.49 -0.02,-68.6c0,-4.44 2.65,-6.45 6.23,-7.99q30.32,-13.06 60.17,-26.31q2.97,-1.31 6.03,0.03q30.35,13.34 61.77,27.06c2.94,1.29 4.7,3.89 4.69,7.09q-0.12,35.27 0,68.86q0.02,5.39 -4.88,7.53q-30.3,13.24 -61.42,26.92q-3.09,1.36 -6.16,0.02zm2.86,-85.53a0.35,0.35 0 0 0 0.28,0l42.61,-17.86a0.35,0.35 0 0 0 0,-0.65l-42.59,-18.67a0.35,0.35 0 0 0 -0.28,0l-42.64,18.66a0.35,0.35 0 0 0 0,0.65l42.62,17.87zm-7.78,67.41a0.43,0.43 0 0 0 0.6,-0.4l-0.01,-53.84a0.43,0.43 0 0 0 -0.26,-0.4l-46.56,-19.5a0.43,0.43 0 0 0 -0.6,0.4l-0.01,52.91a0.43,0.43 0 0 0 0.26,0.39l46.58,20.44zm15.47,-54.61a0.38,0.38 0 0 0 -0.23,0.35l-0.02,53.95a0.38,0.38 0 0 0 0.53,0.35l46.67,-20.46a0.38,0.38 0 0 0 0.23,-0.35l-0.02,-53.06a0.38,0.38 0 0 0 -0.53,-0.35l-46.63,19.57z" fill="#010101"/>
  <rect id="svg_36" transform="rotate(-0.1 308.15 494.16)" rx="7.13" height="14.68" width="54.02" y="486.82" x="281.13999" fill="#010101"/>
 </g>
</svg>